<?xml version="1.0" encoding="UTF-8" ?>
<!DOCTYPE svg PUBLIC "-//W3C//DTD SVG 1.1//EN" "http://www.w3.org/Graphics/SVG/1.1/DTD/svg11.dtd">
<svg width="400" height="400" viewBox="0 0 567 567" version="1.1" xmlns="http://www.w3.org/2000/svg">
<g id="#ff9100ff">
<path fill="#ff9100" opacity="1.00" d=" M 229.97 44.02 C 274.79 29.04 325.70 33.19 367.31 55.69 C 393.07 70.10 415.29 90.93 431.18 115.83 C 441.96 132.88 449.84 151.97 453.00 171.95 C 451.63 192.83 441.60 212.38 427.83 227.83 C 408.82 248.79 384.51 264.16 359.19 276.38 C 353.52 279.28 347.53 281.52 341.90 284.49 C 379.60 275.84 417.14 266.46 454.86 257.89 C 428.51 300.29 401.99 342.60 375.53 384.94 C 370.61 377.36 365.95 369.61 360.99 362.06 C 335.24 374.21 306.57 380.26 278.10 379.14 C 247.21 377.95 216.70 368.20 190.97 351.04 C 175.17 340.58 160.94 327.69 149.18 312.82 C 177.51 326.11 208.81 332.56 240.06 332.56 C 271.42 332.65 302.67 326.89 332.30 316.75 C 327.26 308.39 322.00 300.15 316.38 292.17 C 269.44 306.39 218.22 308.33 171.02 294.20 C 153.19 288.00 137.06 276.39 126.17 260.89 C 119.22 250.98 114.83 239.19 114.24 227.05 C 112.40 210.68 113.13 194.12 115.39 177.83 C 139.92 198.11 171.11 209.18 202.59 212.11 C 227.79 214.53 253.37 212.31 277.93 206.25 C 312.95 197.54 347.81 182.63 373.24 156.28 C 385.01 143.69 395.57 129.21 400.20 112.38 C 403.53 100.45 402.76 86.85 395.68 76.38 C 397.17 89.83 392.01 103.20 383.54 113.49 C 371.10 128.74 354.62 140.06 337.70 149.80 C 295.30 174.05 245.30 186.62 196.51 180.20 C 177.40 178.64 158.95 168.99 147.25 153.73 C 142.86 147.94 139.03 141.31 138.48 133.91 C 137.52 122.65 142.08 111.59 148.74 102.71 C 169.30 75.78 197.86 54.92 229.97 44.02 M 267.07 65.15 C 249.86 67.11 232.28 71.57 218.03 81.82 C 214.29 84.97 209.50 87.97 208.40 93.09 C 207.46 96.94 210.00 101.02 213.78 102.06 C 227.82 107.13 243.14 104.27 256.99 100.01 C 265.83 97.48 274.39 93.91 282.29 89.18 C 287.27 86.11 292.03 81.82 293.61 75.97 C 293.99 74.33 294.70 72.13 293.01 70.96 C 286.29 64.15 275.93 64.11 267.07 65.15 Z" />
</g>
<g id="#494343ff">
<path fill="#494343" opacity="1.00" d=" M 374.95 412.00 C 380.44 412.00 385.93 412.00 391.41 412.00 C 391.41 438.35 391.42 464.70 391.41 491.05 C 385.93 491.05 380.44 491.05 374.95 491.05 C 374.95 464.70 374.95 438.35 374.95 412.00 Z" />
<path fill="#494343" opacity="1.00" d=" M 205.89 416.03 C 216.40 414.09 227.37 414.96 237.54 418.20 C 237.55 423.44 237.51 428.67 237.58 433.90 C 229.55 429.63 220.15 428.22 211.17 429.44 C 201.99 430.91 194.50 438.77 193.12 447.92 C 191.66 456.42 192.83 466.38 199.41 472.58 C 205.96 478.75 216.10 479.13 224.27 476.42 C 224.25 471.63 224.26 466.84 224.25 462.05 C 219.25 462.05 214.25 462.05 209.25 462.05 C 209.25 457.36 209.26 452.69 209.25 448.01 C 219.85 447.99 230.45 448.00 241.05 448.00 C 241.04 460.58 241.07 473.17 241.03 485.75 C 230.16 491.55 217.34 492.99 205.25 491.33 C 195.93 490.07 186.89 485.35 181.41 477.57 C 175.92 469.96 174.41 460.20 175.00 451.01 C 175.56 442.71 178.60 434.47 184.20 428.24 C 189.76 421.84 197.59 417.59 205.89 416.03 Z" />
<path fill="#494343" opacity="1.00" d=" M 276.28 436.19 C 284.87 435.40 294.33 437.06 300.75 443.23 C 306.39 448.50 308.86 456.41 308.55 464.00 C 308.61 471.95 305.74 480.23 299.53 485.44 C 291.70 492.06 280.52 493.10 270.81 491.05 C 262.43 489.35 255.06 483.14 252.44 474.93 C 249.75 466.38 250.11 456.52 254.60 448.63 C 258.98 440.98 267.71 436.82 276.28 436.19 M 277.21 449.21 C 272.64 449.86 269.13 453.79 268.17 458.18 C 266.98 463.44 267.08 469.39 269.83 474.16 C 272.81 479.06 279.50 479.85 284.56 478.30 C 289.03 476.82 291.18 472.04 291.65 467.68 C 292.11 462.72 292.14 457.18 289.11 452.95 C 286.44 449.27 281.43 448.55 277.21 449.21 Z" />
<path fill="#494343" opacity="1.00" d=" M 319.28 440.39 C 329.42 436.41 341.23 433.98 351.65 438.28 C 358.59 441.19 362.08 448.84 362.30 456.02 C 362.57 467.69 362.34 479.37 362.41 491.05 C 357.22 491.05 352.04 491.05 346.85 491.05 C 346.85 488.22 346.85 485.39 346.91 482.57 C 344.64 485.73 342.09 488.95 338.37 490.44 C 331.13 493.48 321.25 492.27 316.65 485.35 C 311.72 477.63 313.50 465.44 322.01 460.96 C 329.74 456.87 338.79 457.47 347.16 455.75 C 346.85 452.32 345.39 448.45 341.68 447.56 C 333.84 445.78 325.72 448.58 319.21 452.94 C 319.28 448.76 319.24 444.57 319.28 440.39 M 333.14 467.19 C 328.63 468.86 327.68 475.69 331.53 478.53 C 335.89 481.54 342.59 479.81 345.18 475.23 C 347.25 472.17 346.90 468.34 347.00 464.84 C 342.38 465.54 337.56 465.54 333.14 467.19 Z" />
</g>
</svg>
